<?xml version="1.0" encoding="UTF-8"?>
<svg width="16px" height="16px" viewBox="0 0 16 16" version="1.1" xmlns="http://www.w3.org/2000/svg" xmlns:xlink="http://www.w3.org/1999/xlink">
    <title>参与</title>
    <g id="空间里层页面优化" stroke="none" stroke-width="1" fill="none" fill-rule="evenodd">
        <g id="应用管理-工作流-配置-开始" transform="translate(-1173, -24)" fill="#000000" fill-rule="nonzero">
            <g id="编组-11" transform="translate(1166, 17)">
                <g id="参与" transform="translate(7, 7)">
                    <g id="编组" transform="translate(1.5, 1)">
                        <path d="M9.66581309,0 C11.5071324,0 12.9999203,1.50297946 12.9999203,3.35712964 L12.9999203,6.99997709 C12.9999203,7.34514783 12.7220975,7.62497504 12.3793991,7.62497504 C12.0367007,7.62497504 11.7588778,7.34514783 11.7588778,6.99997709 L11.7588778,3.35712964 C11.7588778,2.19344595 10.8218287,1.24999591 9.66581309,1.24999591 L3.33410726,1.24999591 C2.17807615,1.24999591 1.24104252,2.19344595 1.24104252,3.35712964 L1.24104252,10.6428245 C1.24104252,11.8065082 2.17809167,12.7499583 3.33410726,12.7499583 L6.04769325,12.7499583 C6.39040715,12.7499583 6.66821451,13.0297855 6.66821451,13.3749562 C6.66821451,13.720127 6.39040715,13.9999542 6.04769325,13.9999542 L3.33410726,13.9999542 C1.49278799,13.9999542 0,12.4969747 0,10.6428245 L0,3.35712964 C0,1.50297946 1.49278799,0 3.33410726,0 L9.66581309,0 Z" id="路径"></path>
                        <path d="M11.8585646,8.937002 C12.0448761,8.6472842 12.4290718,8.56453447 12.7167144,8.75215885 C13.0043726,8.93981449 13.0865296,9.3267976 12.9002336,9.6165154 L10.2649729,13.7147051 C10.0576723,14.0370947 9.61342558,14.0966257 9.3296457,13.8400641 L7.8566058,12.5082872 C7.60157156,12.2777254 7.58041179,11.8825705 7.80932208,11.6256963 C8.03824788,11.3688222 8.43057245,11.3475097 8.68560669,11.5780715 L9.61814154,12.4211937 L11.8585646,8.93698637 L11.8585646,8.937002 Z M9.21354617,4.09820534 C9.55624455,4.09820534 9.83406743,4.37801692 9.83406743,4.72320329 C9.83406743,5.06837404 9.55624455,5.34820125 9.21354617,5.34820125 L3.78637417,5.34820125 C3.4436758,5.34820125 3.16585292,5.06837404 3.16585292,4.72320329 C3.16585292,4.37801692 3.4436758,4.09820534 3.78637417,4.09820534 L9.21354617,4.09820534 Z M9.21354617,7.74105279 C9.55624455,7.74105279 9.83406743,8.02086437 9.83406743,8.36605074 C9.83406743,8.71122149 9.55624455,8.9910487 9.21354617,8.9910487 L3.78637417,8.9910487 C3.4436758,8.9910487 3.16585292,8.71122149 3.16585292,8.36605074 C3.16585292,8.02086437 3.4436758,7.74105279 3.78637417,7.74105279 L9.21354617,7.74105279 Z" id="形状"></path>
                    </g>
                </g>
            </g>
        </g>
    </g>
</svg>