<?xml version="1.0" encoding="UTF-8"?>
<svg width="16px" height="16px" viewBox="0 0 16 16" version="1.1" xmlns="http://www.w3.org/2000/svg" xmlns:xlink="http://www.w3.org/1999/xlink">
    <title>参与</title>
    <g id="空间里层页面优化" stroke="none" stroke-width="1" fill="none" fill-rule="evenodd" stroke-linecap="round">
        <g id="应用管理-工作流-配置-开始" transform="translate(-1211, -24)" stroke="#171719" stroke-width="1.2">
            <g id="编组-11" transform="translate(1204, 17)">
                <g id="参与" transform="translate(7, 7)">
                    <g id="编组-35" transform="translate(1, 2)">
                        <path d="M1.5,0 L9.5,0 C10.3284271,-2.22044605e-16 11,0.671572875 11,1.5 L11,7.5 C11,8.32842712 10.3284271,9 9.5,9 L4.16268077,9 L4.16268077,9 L1.61845449,11.7671841 L1.61845449,9 L1.5,9 C0.671572875,9 2.22044605e-16,8.32842712 2.22044605e-16,7.5 L0,1.5 C0,0.671572875 0.671572875,-2.22044605e-16 1.5,-2.22044605e-16 Z" id="矩形" stroke-linejoin="round"></path>
                        <path d="M14,10.7913467 L14,10.7913467 L11.889042,10.7913467 L9.95430953,12.7671841 L9.95430953,10.7913467 L9.33585504,10.7913467 C8.78357029,10.7913467 8.33585504,10.3436314 8.33585504,9.79134668 L8.33585504,4.21772464 C8.33585504,3.66543989 8.78357029,3.21772464 9.33585504,3.21772464 L9.35694395,3.21772464 L9.35694395,3.21772464" id="路径" stroke-linejoin="round" transform="translate(11.1679, 7.9925) scale(-1, 1) translate(-11.1679, -7.9925)"></path>
                        <path d="M2.57312498,4.7624569 C3.0405519,5.21866557 5.40029607,7.88187743 8.56554211,4.7624569" id="路径-22"></path>
                    </g>
                </g>
            </g>
        </g>
    </g>
</svg>