<?xml version="1.0" encoding="UTF-8"?>
<svg width="16px" height="16px" viewBox="0 0 16 16" version="1.1" xmlns="http://www.w3.org/2000/svg" xmlns:xlink="http://www.w3.org/1999/xlink">
    <title>频次</title>
    <g id="空间外层页面优化" stroke="none" stroke-width="1" fill="none" fill-rule="evenodd">
        <g id="平台管理-收费管理" transform="translate(-314, -750)" fill="currentColor" fill-rule="nonzero">
            <g id="编组-5" transform="translate(288, 64)">
                <g id="编组-13" transform="translate(0, 228)">
                    <g transform="translate(20, 16)" id="频次">
                        <g transform="translate(6, 442)">
                            <path d="M8.32397431,14.7174176 L13.3908989,7.29436898 C13.5898421,7.00271091 13.5091666,6.60853935 13.2103296,6.41423815 C13.1037093,6.3447846 12.9784064,6.30774783 12.8502468,6.30780564 L8.86631603,6.30780564 L8.86631603,1.63467602 C8.86631603,1.28423255 8.57550429,1 8.21668864,1 C7.99937181,1 7.79662724,1.10601998 7.67603646,1.28258243 L2.60911183,8.70563102 C2.41016872,8.99728909 2.49084416,9.39125438 2.78947001,9.58576185 C2.89614942,9.65527988 3.02151846,9.69238624 3.149764,9.69240062 L7.13369475,9.69240062 L7.13369475,14.365324 C7.13369475,14.7157675 7.42450649,15 7.78332213,15 C8.00063896,15 8.20359472,14.89398 8.32397431,14.7174176 Z" id="路径"></path>
                        </g>
                    </g>
                </g>
            </g>
        </g>
    </g>
</svg>