<?xml version="1.0" encoding="UTF-8"?>
<svg width="16px" height="16px" viewBox="0 0 16 16" version="1.1" xmlns="http://www.w3.org/2000/svg" xmlns:xlink="http://www.w3.org/1999/xlink">
    <title>应用</title>
    <g id="空间外层页面优化" stroke="none" stroke-width="1" fill="none" fill-rule="evenodd">
        <g id="平台管理-收费管理" transform="translate(-314, -414)" fill="currentColor" fill-rule="nonzero">
            <g id="编组-5" transform="translate(288, 64)">
                <g id="编组-13" transform="translate(0, 228)">
                    <g transform="translate(20, 16)" id="应用">
                        <g transform="translate(6, 106)">
                            <path d="M5.73221919,1.5 L2.70920955,1.5 C2.04142437,1.5 1.5,2.0410081 1.5,2.70827986 L1.5,5.72897951 C1.5,6.39623705 2.04142437,6.93725937 2.70920955,6.93725937 L5.73223342,6.93725937 C6.40000437,6.93725937 6.94144297,6.39625128 6.94144297,5.72897951 L6.94144297,2.70826564 C6.94144297,2.0410081 6.40000437,1.5 5.73221919,1.5 L5.73221919,1.5 Z M12.7040542,1.5 L9.68104456,1.5 C9.01325938,1.5 8.47183501,2.0410081 8.47183501,2.70827986 L8.47183501,5.72897951 C8.47183501,6.39623705 9.01325938,6.93725937 9.68104456,6.93725937 L12.7040684,6.93725937 C13.3718536,6.93725937 13.913278,6.39625128 13.913278,5.72897951 L13.913278,2.70826564 C13.913278,2.0410081 13.3718394,1.5 12.7040542,1.5 L12.7040542,1.5 Z M5.73221919,8.4711823 L2.70920955,8.4711823 C2.04142437,8.4711823 1.5,9.01220462 1.5,9.67946216 L1.5,12.7001618 C1.5,13.3674336 2.04142437,13.9084417 2.70920955,13.9084417 L5.73223342,13.9084417 C6.40000437,13.9084417 6.94144297,13.3674336 6.94144297,12.7001618 L6.94144297,9.67946216 C6.94144297,9.01220462 6.40000437,8.4711823 5.73221919,8.4711823 L5.73221919,8.4711823 Z M14.1766032,10.5791939 L12.1883205,8.5402163 C11.7490465,8.08947578 11.0275174,8.07989009 10.5761312,8.51898273 L8.53500119,10.5057368 C8.08465397,10.944673 8.07520324,11.6656474 8.51434907,12.1163879 L10.5029307,14.1556499 C10.9422047,14.6063905 11.6640184,14.6158339 12.1148069,14.1768835 L14.1556522,12.1898308 C14.6067395,11.7505959 14.6155925,11.0296358 14.1766032,10.5791939 L14.1766032,10.5791939 Z" id="形状" transform="translate(8, 8) scale(1, -1) translate(-8, -8)"></path>
                        </g>
                    </g>
                </g>
            </g>
        </g>
    </g>
</svg>