<?xml version="1.0" encoding="UTF-8"?>
<svg width="16px" height="16px" viewBox="0 0 16 16" version="1.1" xmlns="http://www.w3.org/2000/svg" xmlns:xlink="http://www.w3.org/1999/xlink">
    <title>编组</title>
    <g id="空间外层页面优化" stroke="none" stroke-width="1" fill="none" fill-rule="evenodd">
        <g id="平台管理-套餐管理-商业版-2" transform="translate(-1077, -748)" fill-rule="nonzero">
            <g id="编组-5备份-2" transform="translate(846, 112)">
                <g id="编组-23" transform="translate(0, 616)">
                    <g id="编组-19" transform="translate(186, 12)">
                        <g id="编组" transform="translate(45, 8)">
                            <path d="M8,1.55 C9.78111832,1.55 11.3936183,2.27194084 12.5608387,3.43916126 C13.7280592,4.60638168 14.45,6.21888168 14.45,8 C14.45,9.78111832 13.7280592,11.3936183 12.5608387,12.5608387 C11.3936183,13.7280592 9.78111832,14.45 8,14.45 C6.21888168,14.45 4.60638168,13.7280592 3.43916126,12.5608387 C2.27194084,11.3936183 1.55,9.78111832 1.55,8 C1.55,6.21888168 2.27194084,4.60638168 3.43916126,3.43916126 C4.60638168,2.27194084 6.21888168,1.55 8,1.55 Z" id="路径" stroke="#171719" stroke-width="1.1"></path>
                            <path d="M6.94857143,10.7314706 C6.78136231,10.7333786 6.62051945,10.6673918 6.50285714,10.5485714 L4.4,8.44571429 C4.1538388,8.19955308 4.15383881,7.80044692 4.40000001,7.55428572 C4.64616121,7.30812452 5.04526737,7.30812452 5.29142857,7.55428571 L6.94857143,9.21142857 L10.7085714,5.45142857 C10.9547326,5.20526739 11.3538388,5.20526739 11.6,5.45142859 C11.8461612,5.69758978 11.8461612,6.09669594 11.6,6.34285714 L7.39428571,10.5485714 C7.27662341,10.6673918 7.11578054,10.7333786 6.94857143,10.7314706 Z" id="路径" fill="#171719"></path>
                        </g>
                    </g>
                </g>
            </g>
        </g>
    </g>
</svg>