<?xml version="1.0" encoding="UTF-8"?>
<svg width="16px" height="16px" viewBox="0 0 16 16" version="1.1" xmlns="http://www.w3.org/2000/svg" xmlns:xlink="http://www.w3.org/1999/xlink">
    <title>终端</title>
    <g id="空间外层页面优化" stroke="none" stroke-width="1" fill="none" fill-rule="evenodd">
        <g id="平台管理-收费管理" transform="translate(-314, -558)" fill="currentColor">
            <g id="编组-5" transform="translate(288, 64)">
                <g id="编组-13" transform="translate(0, 228)">
                    <g transform="translate(20, 16)" id="终端">
                        <g transform="translate(6, 250)">
                            <g id="编组-12" transform="translate(1, 1.5)">
                                <path d="M13,0 C13.5522847,0 14,0.44771525 14,1 L14,3 C14,3.27614237 13.7761424,3.5 13.5,3.5 L0.5,3.5 C0.223857625,3.5 0,3.27614237 0,3 L0,1 C0,0.44771525 0.44771525,1.11022302e-16 1,0 L13,0 Z M2.1,1.2 C1.76862915,1.2 1.5,1.46862915 1.5,1.8 C1.5,2.13137085 1.76862915,2.4 2.1,2.4 C2.43137085,2.4 2.7,2.13137085 2.7,1.8 C2.7,1.46862915 2.43137085,1.2 2.1,1.2 Z M3.9,1.2 C3.56862915,1.2 3.3,1.46862915 3.3,1.8 C3.3,2.13137085 3.56862915,2.4 3.9,2.4 C4.23137085,2.4 4.5,2.13137085 4.5,1.8 C4.5,1.46862915 4.23137085,1.2 3.9,1.2 Z M5.7,1.2 C5.36862915,1.2 5.1,1.46862915 5.1,1.8 C5.1,2.13137085 5.36862915,2.4 5.7,2.4 C6.03137085,2.4 6.3,2.13137085 6.3,1.8 C6.3,1.46862915 6.03137085,1.2 5.7,1.2 Z M13.5,4.5 C13.7761424,4.5 14,4.72385763 14,5 L14,11.8 C14,12.4627417 13.4627417,13 12.8,13 L1.20000005,13 C0.537258322,13 0,12.4627417 0,11.8 L0,5 C0,4.72385763 0.223857625,4.5 0.5,4.5 Z M8,10 L6,10 C5.72385763,10 5.5,10.2238576 5.5,10.5 C5.5,10.7761424 5.72385763,11 6,11 L8,11 C8.27614237,11 8.5,10.7761424 8.5,10.5 C8.5,10.2238576 8.27614237,10 8,10 Z M2.85245368,7.14535031 C2.65658607,6.95069552 2.3400051,6.9516787 2.14535031,7.14754632 L2.0877102,7.21697355 C1.95331998,7.41226 1.97344177,7.68162321 2.14754632,7.85464969 L3.293,8.993 L2.14535707,10.1475395 C1.95069852,10.3434034 1.95167564,10.6599844 2.14753952,10.8546429 C2.3434034,11.0493015 2.65998438,11.0483244 2.85464293,10.8524605 L4.35464293,9.34317241 C4.54930412,9.14730587 4.54832395,8.83071967 4.35245368,8.63606224 Z" id="形状结合"></path>
                            </g>
                        </g>
                    </g>
                </g>
            </g>
        </g>
    </g>
</svg>