<?xml version="1.0" encoding="UTF-8"?>
<svg width="16px" height="16px" viewBox="0 0 16 16" version="1.1" xmlns="http://www.w3.org/2000/svg" xmlns:xlink="http://www.w3.org/1999/xlink">
    <title>知识库容量</title>
    <g id="空间外层页面优化" stroke="none" stroke-width="1" fill="none" fill-rule="evenodd">
        <g id="平台管理-收费管理" transform="translate(-314, -462)" fill="currentColor" fill-rule="nonzero">
            <g id="编组-5" transform="translate(288, 64)">
                <g id="编组-13" transform="translate(0, 228)">
                    <g transform="translate(20, 16)" id="知识库容量">
                        <g transform="translate(6, 154)">
                            <path d="M2,13.2659458 L2,13.2763169 C2.02,14.2304616 2.751,15.0000005 3.672,15.0000005 L13,15.0000005 C13.552,15.0000005 14,14.5426328 14,13.9691089 L14,2.03607771 C14,1.7611133 13.8946114,1.49742586 13.7070462,1.30309395 C13.519481,1.10876204 13.2651245,0.999725798 13,1.00000052 L4,1.00000052 C2.895,1.00000052 2,1.92095808 2,3.06696881 L2,13.2669829 L2,13.2659458 Z M4.79999988,6.99763005 L4.79999988,3.0213358 C4.79999988,2.79317077 4.98,2.60649029 5.2,2.60649029 L7.6,2.60649029 C7.821,2.60649029 8.00000012,2.79317077 8.00000012,3.0213358 L8.00000012,6.99763005 C8.0001274,7.1655208 7.90266905,7.31693863 7.75311605,7.38120551 C7.60356305,7.4454724 7.43140463,7.40991604 7.317,7.29113325 L6.683,6.63360311 C6.6079727,6.55570465 6.5061637,6.51193446 6.4,6.51193446 C6.2938363,6.51193446 6.1920273,6.55570465 6.117,6.63360311 L5.483,7.29113325 C5.36859537,7.40991604 5.19643695,7.4454724 5.04688395,7.38120551 C4.89733095,7.31693863 4.7998726,7.1655208 4.79999988,6.99763005 L4.79999988,6.99763005 Z M3.576,13.5833026 C3.45866667,13.4629974 3.4,13.3164186 3.4,13.1435663 C3.4,12.9720968 3.45866667,12.8255181 3.576,12.7038301 C3.69266667,12.5821421 3.834,12.5212981 4,12.5212981 L12.3,12.5212981 C12.4656854,12.5212981 12.6,12.6556126 12.6,12.8212981 L12.6,13.4658346 C12.6,13.63152 12.4656854,13.7658346 12.3,13.7658346 L4,13.7658346 L4,13.7658346 C3.834,13.7658346 3.69266667,13.7049906 3.576,13.5833026 Z" id="形状"></path>
                        </g>
                    </g>
                </g>
            </g>
        </g>
    </g>
</svg>