<?xml version="1.0" encoding="UTF-8"?>
<svg width="16px" height="16px" viewBox="0 0 16 16" version="1.1" xmlns="http://www.w3.org/2000/svg" xmlns:xlink="http://www.w3.org/1999/xlink">
    <title>记忆引擎</title>
    <g id="空间外层页面优化" stroke="none" stroke-width="1" fill="none" fill-rule="evenodd">
        <g id="平台管理-收费管理" transform="translate(-314, -510)" fill="currentColor">
            <g id="编组-5" transform="translate(288, 64)">
                <g id="编组-13" transform="translate(0, 228)">
                    <g transform="translate(20, 16)" id="记忆引擎">
                        <g transform="translate(6, 202)">
                            <g id="编组-25" transform="translate(1, 1.5)">
                                <path d="M4.33333333,0 C5.52995029,0 6.5,0.970564798 6.5,2.16781715 L6.499,2.193 L6.5,10.8390858 L6.47808338,10.8391196 C6.31578908,12.0589502 5.27189987,13 4.00833333,13 C2.63222383,13 1.51666667,11.8838505 1.51666667,10.5070103 C1.51666667,10.332196 1.53465035,10.1615842 1.56886767,9.99692601 C0.663423478,9.73754175 0,8.90246334 0,7.9123518 C0,7.36506373 0.202700377,6.86514401 0.537084253,6.48364722 C0.203054284,6.10374909 0,5.60343451 0,5.05566888 C0,3.85841652 0.970049709,2.88785173 2.16666667,2.88785173 C2.20862378,2.88785173 2.25030235,2.88904496 2.29167033,2.89139936 C2.210453,2.6663156 2.16666667,2.42218251 2.16666667,2.16781715 C2.16666667,0.970564798 3.13671638,0 4.33333333,0 Z" id="形状结合"></path>
                                <path d="M11.8333333,0 C13.0299503,0 14,0.970564798 14,2.16781715 L13.999,2.193 L14,10.8390858 L13.9780834,10.8391196 C13.8157891,12.0589502 12.7718999,13 11.5083333,13 C10.1322238,13 9.01666667,11.8838505 9.01666667,10.5070103 C9.01666667,10.332196 9.03465035,10.1615842 9.06886767,9.99692601 C8.16342348,9.73754175 7.5,8.90246334 7.5,7.9123518 C7.5,7.36506373 7.70270038,6.86514401 8.03708425,6.48364722 C7.70305428,6.10374909 7.5,5.60343451 7.5,5.05566888 C7.5,3.85841652 8.47004971,2.88785173 9.66666667,2.88785173 C9.70862378,2.88785173 9.75030235,2.88904496 9.79167033,2.89139936 C9.710453,2.6663156 9.66666667,2.42218251 9.66666667,2.16781715 C9.66666667,0.970564798 10.6367164,0 11.8333333,0 Z" id="形状结合" transform="translate(10.75, 6.5) scale(-1, 1) translate(-10.75, -6.5)"></path>
                            </g>
                        </g>
                    </g>
                </g>
            </g>
        </g>
    </g>
</svg>