<?xml version="1.0" encoding="UTF-8"?>
<svg width="16px" height="16px" viewBox="0 0 16 16" version="1.1" xmlns="http://www.w3.org/2000/svg" xmlns:xlink="http://www.w3.org/1999/xlink">
    <title>模型</title>
    <g id="空间外层页面优化" stroke="none" stroke-width="1" fill="none" fill-rule="evenodd">
        <g id="平台管理-收费管理" transform="translate(-314, -654)" fill="currentColor" fill-rule="nonzero">
            <g id="编组-5" transform="translate(288, 64)">
                <g id="编组-13" transform="translate(0, 228)">
                    <g transform="translate(20, 16)" id="模型">
                        <g transform="translate(6, 346)">
                            <path d="M8.9375,2.45132371 C8.9375,2.73288225 8.816875,2.98590446 8.625,3.1602932 L8.625,4.35374628 L11.75,4.35374628 C12.7855339,4.35374628 13.625,5.20548988 13.625,6.25616886 L13.625,12.5975774 C13.625,13.6482564 12.7855339,14.5 11.75,14.5 L4.25,14.5 C3.21446609,14.5 2.375,13.6482564 2.375,12.5975774 L2.375,6.25616886 C2.375,5.20548988 3.21446609,4.35374628 4.25,4.35374628 L7.375,4.35374628 L7.375,3.1602932 C7.05390217,2.86889419 6.9698603,2.39296943 7.17127056,2.00658393 C7.37268081,1.62019842 7.80769695,1.42281399 8.22581154,1.52809601 C8.64392612,1.63337802 8.93750975,2.0142252 8.9375,2.45132371 Z M0.5,7.52445058 L1.75,7.52445058 L1.75,11.3292957 L0.5,11.3292957 L0.5,7.52445058 L0.5,7.52445058 Z M15.5,7.52445058 L14.25,7.52445058 L14.25,11.3292957 L15.5,11.3292957 L15.5,7.52445058 L15.5,7.52445058 Z M6.125,10.3780844 C6.64276695,10.3780844 7.0625,9.95221264 7.0625,9.42687315 C7.0625,8.90153366 6.64276695,8.47566186 6.125,8.47566186 C5.60723305,8.47566186 5.1875,8.90153366 5.1875,9.42687315 C5.1875,9.95221264 5.60723305,10.3780844 6.125,10.3780844 Z M10.8125,9.42687315 C10.8125,8.90153366 10.392767,8.47566186 9.875,8.47566186 C9.35723305,8.47566186 8.9375,8.90153366 8.9375,9.42687315 C8.9375,9.95221264 9.35723305,10.3780844 9.875,10.3780844 C10.392767,10.3780844 10.8125,9.95221264 10.8125,9.42687315 Z" id="形状"></path>
                        </g>
                    </g>
                </g>
            </g>
        </g>
    </g>
</svg>