<?xml version="1.0" encoding="UTF-8"?>
<svg width="16px" height="16px" viewBox="0 0 16 16" version="1.1" xmlns="http://www.w3.org/2000/svg" xmlns:xlink="http://www.w3.org/1999/xlink">
    <title>本体工程</title>
    <g id="空间外层页面优化" stroke="none" stroke-width="1" fill="none" fill-rule="evenodd">
        <g id="平台管理-收费管理" transform="translate(-314, -606)" fill="currentColor" fill-rule="nonzero">
            <g id="编组-5" transform="translate(288, 64)">
                <g id="编组-13" transform="translate(0, 228)">
                    <g transform="translate(20, 16)" id="本体工程">
                        <g transform="translate(6, 298)">
                            <path d="M8.00029166,11.9565844 C8.55099458,11.9458014 9.06454299,12.2334279 9.34305434,12.7086345 C9.62156569,13.1838411 9.62156569,13.7724504 9.34305434,14.247657 C9.06454299,14.7228637 8.55099458,15.0104901 8.00029166,14.9997071 C7.17156632,14.9834803 6.50823134,14.3070298 6.50823134,13.4781458 C6.50823134,12.6492617 7.17156632,11.9728113 8.00029166,11.9565844 L8.00029166,11.9565844 Z M10.6998458,3.52602054 C11.3812309,3.93684948 11.9607513,4.49662702 12.3949419,5.16336869 C12.4894327,5.30835024 12.5214141,5.48532999 12.4836406,5.65421257 C12.4458671,5.82309514 12.3415359,5.96958625 12.1942836,6.06049782 C11.5289324,6.46893919 11.1240922,7.19420398 11.1256614,7.97491772 C11.1256614,8.78688374 11.5578934,9.5224363 12.2456148,9.91966968 C12.5576851,10.0993288 12.6591809,10.5029786 12.4701887,10.8109657 C12.0643977,11.4723107 11.5176721,12.0359657 10.8690055,12.46173 C10.7204191,12.5590552 10.5377976,12.589527 10.3656617,12.5457166 C10.1935258,12.5019063 10.047691,12.387839 9.96370985,12.2313229 C9.57624512,11.5120945 8.82541474,11.0634332 8.00845798,11.0629552 C7.19433681,11.0636561 6.44575953,11.5094456 6.05728927,12.2249066 C5.8782134,12.5515596 5.46114745,12.6565552 5.15082705,12.4512304 C4.48752495,12.0126641 3.93197322,11.4297935 3.52572809,10.7462184 C3.35319815,10.4559047 3.43473788,10.0815865 3.71238698,9.88933762 C4.32253406,9.47072463 4.68664967,8.77785728 4.68534645,8.03791508 C4.686623,7.30050165 4.32496025,6.60967794 3.71822007,6.19057571 C3.4410501,5.99756611 3.36052505,5.62297181 3.53389441,5.3331116 C3.97422818,4.59704162 4.58752564,3.97953949 5.32056998,3.53418686 C5.60872463,3.35919418 5.98262572,3.44085743 6.17278447,3.72026241 C6.5863185,4.32982165 7.27545367,4.69435748 8.01204828,4.69318847 C8.74864289,4.69201945 9.43661752,4.32529808 9.84821467,3.71442932 C10.0377901,3.43444104 10.4111079,3.35219449 10.6998458,3.52602054 Z M2.52185326,6.47756371 C3.3623496,6.47756371 4.04370651,7.1589205 4.04370651,7.99941669 C4.04370651,8.83991289 3.3623496,9.52126968 2.52185326,9.52126968 C1.68135691,9.52126968 1,8.83991289 1,7.99941669 C1,7.1589205 1.68135691,6.47756371 2.52185326,6.47756371 L2.52185326,6.47756371 Z M13.4781467,6.47756371 C14.3186431,6.47756371 15,7.1589205 15,7.99941669 C15,8.83991289 14.3186431,9.52126968 13.4781467,9.52126968 C12.6376504,9.52126968 11.9562935,8.83991289 11.9562935,7.99941669 C11.9562935,7.1589205 12.6376504,6.47756371 13.4781467,6.47756371 L13.4781467,6.47756371 Z M8.00029166,1.0002929 C8.55099467,0.989509733 9.0645432,1.27713619 9.34305463,1.75234287 C9.62156606,2.22754954 9.62156606,2.81615891 9.34305463,3.29136558 C9.0645432,3.76657226 8.55099467,4.05419872 8.00029166,4.04341555 C7.17156646,4.02718851 6.50823169,3.35073813 6.50823169,2.52185423 C6.50823169,1.69297032 7.17156646,1.01651994 8.00029166,1.0002929 L8.00029166,1.0002929 Z" id="形状"></path>
                        </g>
                    </g>
                </g>
            </g>
        </g>
    </g>
</svg>