<?xml version="1.0" encoding="UTF-8"?>
<svg width="16px" height="16px" viewBox="0 0 16 16" version="1.1" xmlns="http://www.w3.org/2000/svg" xmlns:xlink="http://www.w3.org/1999/xlink">
    <title>技能</title>
    <g id="空间外层页面优化" stroke="none" stroke-width="1" fill="none" fill-rule="evenodd">
        <g id="平台管理-收费管理" transform="translate(-314, -366)" fill="currentColor" fill-rule="nonzero">
            <g id="编组-5" transform="translate(288, 64)">
                <g id="编组-13" transform="translate(0, 228)">
                    <g transform="translate(20, 16)" id="技能">
                        <g transform="translate(6, 58)">
                            <path d="M13.1093988,2.59578193 L13.4555609,2.94978293 C13.8735923,3.3772807 13.8735923,4.06040714 13.4555609,4.48790491 L4.31301403,13.8374857 L4.2959692,13.8545385 C3.86181051,14.2794839 3.16536908,14.272015 2.74042373,13.8378563 L2.3940984,13.4840222 C1.97572454,13.0565775 1.97556347,12.3731715 2.3937358,11.9455296 L11.5364459,2.59578193 L11.5538614,2.57836647 C11.9882203,2.15362581 12.6846581,2.16142298 13.1093988,2.59578193 Z M12.0437778,8.13777778 C12.1548235,8.14157777 12.2459151,8.22925253 12.2553906,8.3422989 C12.3375526,9.32051934 13.0757988,10.1076496 14.0280997,10.2323906 C14.140251,10.2448863 14.2244871,10.3429276 14.2221758,10.458273 C14.2198645,10.5736184 14.1317717,10.6680483 14.019214,10.6758351 C13.0620685,10.7592707 12.2919283,11.5150446 12.1709758,12.4895962 C12.154941,12.6005116 12.0607522,12.6819263 11.9511371,12.6796198 C11.841522,12.6773133 11.7506877,12.5920053 11.7391279,12.4805092 C11.6579275,11.5026771 10.9208042,10.715182 9.96908446,10.5895088 C9.85693321,10.5770131 9.77269711,10.4789718 9.77500841,10.3636264 C9.7773197,10.248281 9.86541254,10.1538511 9.97797022,10.1460643 C10.9344274,10.0618167 11.7036291,9.30623726 11.8244312,8.33230322 C11.836223,8.24007169 11.9028425,8.16505835 11.9914835,8.14420276 L12.0437778,8.13777778 Z M4.04677778,1.77777778 C4.1576393,1.78069238 4.24873095,1.86836714 4.25820637,1.98141351 C4.34036837,2.95963395 5.07861462,3.74676424 6.03091554,3.87150517 C6.14306679,3.88400094 6.22730289,3.98204216 6.22499159,4.09738759 C6.2226803,4.21273302 6.13458746,4.30716294 6.02202978,4.31494975 C5.06488427,4.39838528 4.29474414,5.15415919 4.17379165,6.12871078 C4.15775682,6.23962624 4.06356797,6.32104094 3.95395289,6.31873441 C3.8443378,6.31642788 3.7535035,6.23111991 3.7419437,6.11962381 C3.66074329,5.14179167 2.92362,4.35429664 1.97190027,4.22862345 C1.85974901,4.21612767 1.77551292,4.11808646 1.77782421,4.00274103 C1.78013551,3.8873956 1.86822835,3.79296568 1.98078603,3.78517887 C2.93724323,3.70093132 3.70644486,2.94535187 3.827247,1.97141783 C3.83903882,1.8791863 3.90565827,1.80417296 3.99429929,1.78331737 L4.04677778,1.77777778 Z M7.97077778,1.77777778 C8.0434983,1.77530067 8.10642776,1.82945264 8.11640346,1.90326549 C8.16260941,2.23494023 8.42740507,2.48846695 8.75440104,2.51300179 C8.83292056,2.51049249 8.89856235,2.57355237 8.90101608,2.65384997 C8.90346982,2.73414756 8.84180632,2.80127582 8.7632868,2.80378512 C8.43951745,2.85069166 8.19138283,3.12184124 8.16705229,3.45532153 C8.16950603,3.53561913 8.10784253,3.60274738 8.02932301,3.60525668 C7.95080349,3.60776598 7.8851617,3.5447061 7.88270797,3.4644085 C7.83684011,3.13330736 7.57169477,2.87955371 7.24559896,2.85467221 C7.17114496,2.85152757 7.11169823,2.79012738 7.10936341,2.71395988 C7.10702859,2.63779237 7.16259799,2.57270502 7.2367132,2.56479757 C7.56078738,2.51781428 7.80901639,2.24618323 7.83294771,1.91235247 C7.83703762,1.85408063 7.87483694,1.80397192 7.92891392,1.78513476 L7.97077778,1.77777778 Z" id="形状结合"></path>
                        </g>
                    </g>
                </g>
            </g>
        </g>
    </g>
</svg>