<?xml version="1.0" encoding="UTF-8"?>
<svg width="16px" height="16px" viewBox="0 0 16 16" version="1.1" xmlns="http://www.w3.org/2000/svg" xmlns:xlink="http://www.w3.org/1999/xlink">
    <title>SLA</title>
    <g id="空间外层页面优化" stroke="none" stroke-width="1" fill="none" fill-rule="evenodd">
        <g id="平台管理-套餐管理-个人版" transform="translate(-1058, -694)" fill="currentColor" fill-rule="nonzero">
            <g id="编组-5备份-4" transform="translate(1032, 112)">
                <g id="编组-13" transform="translate(0, 172)">
                    <g transform="translate(20, 16)" id="SLA">
                        <g transform="translate(6, 394)">
                            <g id="形状" transform="translate(2, 1)">
                                <path d="M10.8664675,0 L1.13077453,0 C0.507469547,0 0,0.500390625 0,1.12109375 L0,12.8789062 C0,13.496875 0.504711561,14 1.13077453,14 L10.8692255,14 C11.4925305,14 12,13.4996094 12,12.8789062 L12,1.12109375 C11.997242,0.500390625 11.4925305,0 10.8664675,0 Z M3.41714548,4.16171875 L4.69960929,3.97578125 C4.84302459,3.95390625 4.96713399,3.86640625 5.03056769,3.73789062 L5.60422891,2.58671875 C5.76419214,2.2640625 6.23029189,2.2640625 6.3930131,2.58671875 L6.96667433,3.73789062 C7.03010802,3.86640625 7.15421742,3.95664062 7.29763273,3.97578125 L8.58009653,4.16171875 C8.94139278,4.21367187 9.08480809,4.65390625 8.82279936,4.90546875 L7.89335785,5.80234375 C7.78855436,5.90351562 7.74166858,6.04570312 7.76649046,6.18789062 L7.98437141,7.45390625 C8.04504712,7.809375 7.66996093,8.08007812 7.34727649,7.91328125 L6.19995403,7.31445312 C6.07308665,7.24882812 5.91863939,7.24882812 5.79177201,7.31445312 L4.64720754,7.91328125 C4.3245231,8.08007812 3.94943691,7.809375 4.01011262,7.45390625 L4.22799356,6.18789062 C4.25281544,6.04570312 4.20592967,5.90351562 4.10112618,5.80234375 L3.17168467,4.90546875 C2.91519191,4.65390625 3.05584923,4.21367187 3.41714548,4.16171875 Z M9.00482648,11.4597656 L2.99241554,11.4597656 C2.65594116,11.4597656 2.38565847,11.1917969 2.38565847,10.8582031 C2.38565847,10.5246094 2.65594116,10.2566406 2.99241554,10.2566406 L9.00482648,10.2566406 C9.34130085,10.2566406 9.61158354,10.5273438 9.61158354,10.8582031 C9.61158354,11.1917969 9.34130085,11.4597656 9.00482648,11.4597656 Z"></path>
                            </g>
                        </g>
                    </g>
                </g>
            </g>
        </g>
    </g>
</svg>