<?xml version="1.0" encoding="UTF-8"?>
<svg width="16px" height="16px" viewBox="0 0 16 16" version="1.1" xmlns="http://www.w3.org/2000/svg" xmlns:xlink="http://www.w3.org/1999/xlink">
    <title>空间</title>
    <g id="空间外层页面优化" stroke="none" stroke-width="1" fill="none" fill-rule="evenodd">
        <g id="平台管理-收费管理" transform="translate(-314, -318)" fill="currentColor" fill-rule="nonzero">
            <g id="编组-5" transform="translate(288, 64)">
                <g id="编组-13" transform="translate(0, 228)">
                    <g transform="translate(20, 16)" id="空间">
                        <g transform="translate(6, 10)">
                            <path d="M13.6,5.75002346 L9.16,8.25495925 C8.75,8.48362559 8.5,8.94095826 8.5,9.45026056 L8.5,14.2938293 C8.5,14.8135256 8.99,15.1565251 9.4,14.9174648 L13.84,12.412529 C14.24,12.1838627 14.5,11.72653 14.5,11.2172277 L14.5,6.38405285 C14.5,5.85396271 14.01,5.52135713 13.6,5.75002346 Z M6.84,8.24456533 L2.4,5.75002346 C1.99,5.52135713 1.5,5.85396271 1.5,6.37365893 L1.5,11.2380156 C1.5,11.7473179 1.75,12.2046505 2.16,12.4333169 L6.6,14.9278587 C7.01,15.1565251 7.5,14.8135256 7.5,14.2938293 L7.5,9.43986663 C7.5,8.93056434 7.25,8.47323166 6.84,8.24456533 L6.84,8.24456533 Z M13.19,4.6170857 C13.4,4.50275253 13.5,4.30526797 13.48,4.11817733 C13.5,3.92069276 13.4,3.73360212 13.19,3.61926896 L8.67,1.16630279 C8.47,1.05196962 8.23,1 7.99,1 C7.75,1 7.51,1.05196962 7.31,1.16630279 L2.79,3.60887503 C2.58,3.7232082 2.49,3.92069276 2.5,4.1077834 C2.49,4.30526797 2.58,4.50275253 2.79,4.6170857 L7.31,7.05965794 C7.51,7.17399111 7.75,7.22596073 7.99,7.22596073 C8.23,7.22596073 8.47,7.17399111 8.67,7.05965794 L13.19,4.6170857 Z" id="形状"></path>
                        </g>
                    </g>
                </g>
            </g>
        </g>
    </g>
</svg>