<?xml version="1.0" encoding="UTF-8"?>
<svg width="24px" height="24px" viewBox="0 0 24 24" version="1.1" xmlns="http://www.w3.org/2000/svg" xmlns:xlink="http://www.w3.org/1999/xlink">
    <title>热点洞察</title>
    <g id="空间里层页面优化" stroke="none" stroke-width="1" fill="none" fill-rule="evenodd">
        <g id="记忆库-个人记忆" transform="translate(-40, -317)" fill="#171719" fill-rule="nonzero">
            <g id="编组" transform="translate(12, 12)">
                <g id="编组-11" transform="translate(16, 104)">
                    <g id="热点洞察" transform="translate(12, 201)">
                        <path d="M3.9387755,13.4 C5.06122447,13.4 5.87755102,14.3 5.87755102,15.3 C5.87755102,15.7 5.77551019,16.1 5.57142857,16.4 C6.89795919,18.6 9.44897958,20.1 12.2040816,20.1 C12.8163265,20.1 13.4285714,20 14.0408163,19.9 C14.5510204,19.8 15.0612245,20.1 15.2653061,20.6 C15.3673469,21.1 15.0612245,21.6 14.5510204,21.8 C13.8367347,21.9 13.0204082,22 12.2040816,22 C8.63265306,22 5.46938774,20.1 3.73469387,17.2 C2.7142857,17.1 2,16.3 2,15.3 C2,14.3 2.91836735,13.4 3.9387755,13.4 L3.9387755,13.4 Z M19.3469388,5.9 C21.0816327,7.7 22,9.99999999 22,12.4 C22,14.1 21.5918367,15.7 20.7755102,17.1 C20.9795918,17.4 21.0816327,17.7 21.0816327,18.1 C21.0816327,19.2 20.1632653,20 19.1428572,20 C18.122449,20 17.1020408,19.2 17.1020408,18.2 C17.1020408,17.2 17.9183673,16.4 18.9387755,16.3 L19.0408163,16.3 L19.1428572,16 C19.7551021,14.9 20.0612245,13.7 20.0612245,12.5 C20.0612245,10.5 19.244898,8.7 17.9183674,7.30000001 C17.5102041,6.9 17.6122449,6.3 17.9183674,6 C18.3265306,5.50000001 18.9387755,5.6 19.3469388,5.9 L19.3469388,5.9 Z M12.2040816,8.7 C14.3469388,8.7 16.0816327,10.4 16.0816327,12.5 C16.0816327,14.6 14.3469388,16.3 12.2040816,16.3 C10.0612245,16.3 8.32653061,14.6 8.32653061,12.5 C8.32653061,10.4 10.0612245,8.7 12.2040816,8.7 Z M12.2040816,10.6 C11.0816327,10.6 10.2653061,11.5 10.2653061,12.5 C10.2653061,13.5 11.1836735,14.4 12.2040816,14.4 C13.2244898,14.4 14.1428571,13.5 14.1428571,12.5 C14.1428571,11.5 13.3265306,10.6 12.2040816,10.6 Z M14.1428571,2 C15.2653061,2 16.0816327,2.9 16.0816327,3.90000001 C16.0816327,4.90000001 15.1632653,5.80000001 14.1428571,5.80000001 C13.4285714,5.80000001 12.8163265,5.40000001 12.5102041,4.90000001 L12.2040816,4.90000001 C8.63265306,4.90000001 5.57142857,7.2 4.65306122,10.5 C4.55102039,11 3.9387755,11.3 3.42857142,11.2 C3.02040815,11 2.7142857,10.5 2.81632652,10 C3.9387755,5.90000002 7.81632654,3 12.2040816,3 L12.5102041,3 C12.8163265,2.40000001 13.4285714,2 14.1428571,2 L14.1428571,2 Z" id="形状"></path>
                    </g>
                </g>
            </g>
        </g>
    </g>
</svg>