<?xml version="1.0" encoding="UTF-8"?>
<svg width="16px" height="16px" viewBox="0 0 16 16" version="1.1" xmlns="http://www.w3.org/2000/svg" xmlns:xlink="http://www.w3.org/1999/xlink">
    <title>勾选</title>
    <g id="空间外层页面优化" stroke="none" stroke-width="1" fill="none" fill-rule="evenodd">
        <g id="登录页面" transform="translate(-64, -611)" fill="#FFFFFF" fill-rule="nonzero">
            <g id="编组-8" transform="translate(64, 608)">
                <g id="勾选" transform="translate(0, 3)">
                    <path d="M12,0 C14.209139,0 16,1.790861 16,4 L16,12 C16,14.209139 14.209139,16 12,16 L4,16 C1.790861,16 0,14.209139 0,12 L0,4 C0,1.790861 1.790861,4.4408921e-16 4,0 L12,0 Z M11.9182266,4.80024782 C11.7273831,4.80024782 11.5444062,4.87629473 11.4097812,5.0115625 L6.552,9.86932813 L4.4284375,7.74489063 C4.29381317,7.60962766 4.11083967,7.53358379 3.92,7.53358379 C3.72916033,7.53358379 3.54618683,7.60962766 3.4115625,7.74489063 C3.27602096,7.87955071 3.19979999,8.06271883 3.19979999,8.25378125 C3.19979999,8.44484367 3.27602096,8.62801179 3.4115625,8.76267188 L6.0453125,11.3946719 C6.17993745,11.5299396 6.3629143,11.6059866 6.55375781,11.6059866 C6.74460132,11.6059866 6.92757818,11.5299396 7.06220312,11.3946719 L12.4311094,6.02667188 C12.5659036,5.89187668 12.6412595,5.70881589 12.6404302,5.51818919 C12.639587,5.3275625 12.5626279,5.14516989 12.4266562,5.0115625 C12.2920469,4.87629473 12.1090701,4.80024782 11.9182266,4.80024782 Z" id="形状结合"></path>
                </g>
            </g>
        </g>
    </g>
</svg>